HIERARCHY
ROOT Hips
{
	OFFSET 0.0000 0.0000 0.0000
	CHANNELS 6 Xposition Yposition Zposition Zrotation Xrotation Yrotation
	JOINT Ab
	{
		OFFSET -0.0000 8.1305 -0.0000
		CHANNELS 3 Zrotation Xrotation Yrotation
		JOINT Chest
		{
			OFFSET -0.0000 26.2902 -0.0000
			CHANNELS 3 Zrotation Xrotation Yrotation
			JOINT Neck
			{
				OFFSET -0.0000 26.2902 0.0000
				CHANNELS 3 Zrotation Xrotation Yrotation
				JOINT Head
				{
					OFFSET -0.0000 10.8167 0.0000
					CHANNELS 3 Zrotation Xrotation Yrotation
					End Site
					{
						OFFSET -0.0000 16.7167 0.0000
					}
				}
			}
			JOINT LeftCollar
			{
				OFFSET -0.0000 26.2902 0.0000
				CHANNELS 3 Zrotation Xrotation Yrotation
				JOINT LeftShoulder
				{
					OFFSET 19.6667 -0.0000 0.0000
					CHANNELS 3 Zrotation Xrotation Yrotation
					JOINT LeftElbow
					{
						OFFSET 27.2190 0.0000 0.0000
						CHANNELS 3 Zrotation Xrotation Yrotation
						JOINT LeftWrist
						{
							OFFSET 30.7431 0.0000 0.0000
							CHANNELS 3 Zrotation Xrotation Yrotation
							End Site
							{
								OFFSET 0.0000 -14.7500 0.0000
							}
						}
					}
				}
			}
			JOINT RightCollar
			{
				OFFSET -0.0000 26.2902 0.0000
				CHANNELS 3 Zrotation Xrotation Yrotation
				JOINT RightShoulder
				{
					OFFSET -19.6667 0.0000 0.0000
					CHANNELS 3 Zrotation Xrotation Yrotation
					JOINT RightElbow
					{
						OFFSET -27.2190 0.0000 0.0000
						CHANNELS 3 Zrotation Xrotation Yrotation
						JOINT RightWrist
						{
							OFFSET -30.7431 0.0000 0.0000
							CHANNELS 3 Zrotation Xrotation Yrotation
							End Site
							{
								OFFSET -0.0000 -14.7500 0.0000
							}
						}
					}
				}
			}
		}
	}
	JOINT LeftHip
	{
		OFFSET 11.8000 0.0000 0.0000
		CHANNELS 3 Zrotation Xrotation Yrotation
		JOINT LeftKnee
		{
			OFFSET -0.0000 -39.7832 0.0000
			CHANNELS 3 Zrotation Xrotation Yrotation
			JOINT LeftAnkle
			{
				OFFSET -0.0000 -41.7317 0.0000
				CHANNELS 3 Zrotation Xrotation Yrotation
				End Site
				{
					OFFSET -0.0000 -4.9167 16.7167
				}
			}
		}
	}
	JOINT RightHip
	{
		OFFSET -11.8000 0.0000 0.0000
		CHANNELS 3 Zrotation Xrotation Yrotation
		JOINT RightKnee
		{
			OFFSET -0.0000 -39.7832 0.0000
			CHANNELS 3 Zrotation Xrotation Yrotation
			JOINT RightAnkle
			{
				OFFSET -0.0000 -41.7317 0.0000
				CHANNELS 3 Zrotation Xrotation Yrotation
				End Site
				{
					OFFSET -0.0000 -4.9167 16.7167
				}
			}
		}
	}
}
MOTION
Frames: 20
Frame Time: 0.010000
-18.6311 96.8190 173.7213 357.8025 357.0660 177.4111 357.5625 348.1008 359.5057 2.4969 11.0459 359.5161 358.7493 357.8824 0.8985 355.4096 2.9254 1.0402 339.9682 357.2905 15.3458 320.7770 60.1168 336.2412 9.0669 357.2412 326.2533 92.5871 356.2319 344.7568 26.5516 355.7973 342.4004 47.4102 44.9975 1.4102 339.0199 354.0156 31.8076 269.0068 353.4688 7.3106 355.5169 2.7507 2.6725 358.5443 6.4713 4.9315 356.8736 352.4055 13.1939 357.4662 5.3812 11.2659 6.3263 7.2240 9.6340 349.7556 342.2555 310.5761 
-18.6497 96.8138 173.7126 357.7977 357.0119 177.4118 357.5568 348.0659 359.4999 2.4956 11.0650 359.5150 358.7636 357.8245 0.8918 355.3774 2.9733 1.0348 339.9773 357.2930 15.3481 320.8114 60.0966 336.1775 9.1057 357.2490 326.2534 92.6261 356.2705 344.8459 26.5378 355.8376 342.3777 47.3754 45.0142 1.5261 339.0059 353.9604 31.7896 269.0428 353.4666 7.3611 355.5045 2.6912 2.6819 358.5420 6.4908 4.9121 356.8000 352.3948 13.2017 357.4526 5.3150 11.2562 6.3258 7.2627 9.6580 349.9757 341.8472 310.4343 
-18.6724 96.8117 173.6937 357.7970 357.0035 177.4095 357.5779 348.0731 359.4966 2.4653 11.0803 359.5081 358.7633 357.7895 0.8960 355.3801 3.0029 1.0398 340.0034 357.2712 15.3154 320.7092 60.0756 336.2849 9.1498 357.1858 326.1405 93.5937 356.3365 345.3790 26.4983 355.8037 342.3716 47.4365 45.0890 1.5576 338.8771 353.9277 31.7389 269.1227 353.4298 7.3439 355.4881 2.6853 2.6745 358.5411 6.5172 4.8949 357.0060 352.3753 13.2190 357.4398 5.2996 11.2199 6.3288 7.2915 9.6184 349.9861 341.8223 310.4850 
-18.6994 96.8085 173.6709 357.7944 356.9848 177.4066 357.6102 348.0461 359.4899 2.4229 11.1383 359.4990 358.7692 357.7195 0.9046 355.3692 3.0459 1.0491 340.0232 357.3056 15.3169 320.7084 60.0206 336.2768 9.0707 357.2151 326.0891 93.6473 356.3522 345.3705 26.4826 355.8502 342.3666 47.4439 45.0993 1.6018 338.9319 353.9285 31.7604 269.0655 353.4797 7.2940 355.4671 2.6923 2.6394 358.5381 6.4965 4.9089 356.9683 352.3669 13.2450 357.4173 5.2988 11.2329 6.3289 7.2891 9.6490 349.7991 342.1688 310.5854 
-18.7259 96.8063 173.6475 357.7795 356.9495 177.3955 357.6397 348.0083 359.4720 2.3686 11.1850 359.4834 358.7560 357.6182 0.9198 355.3726 3.1393 1.0702 340.0695 357.2773 15.3661 320.7613 60.0748 336.1464 9.2144 357.1719 326.1381 93.4444 356.3463 345.4240 26.4696 355.8128 342.3872 47.4737 45.1220 1.6253 338.8298 353.9177 31.7399 269.1005 353.4669 7.3235 355.4300 2.6731 2.6198 358.5453 6.4895 4.9664 357.0240 352.3628 13.1954 357.3811 5.2572 11.2225 6.3443 7.3219 9.6083 349.9806 341.8062 310.5072 
-18.7465 96.8041 173.6279 357.7731 356.9254 177.3953 357.6254 347.9823 359.4636 2.3739 11.2424 359.4849 358.7695 357.5530 0.9216 355.3519 3.1787 1.0773 340.0575 357.3150 15.3559 320.7802 59.9840 336.1507 9.0782 357.2157 326.0810 93.4260 356.3754 345.3356 26.4515 355.8479 342.3802 47.4486 45.1312 1.6974 338.8851 353.9284 31.7465 269.0838 353.5069 7.3328 355.4147 2.6617 2.5750 358.5356 6.4898 4.9675 356.9593 352.3416 13.2389 357.3674 5.2396 11.2054 6.3319 7.3330 9.6192 350.0126 341.7669 310.5011 
-18.7723 96.8024 173.6073 357.7580 356.8970 177.3735 357.6491 347.9647 359.4595 2.3350 11.2719 359.4750 358.7360 357.4846 0.9356 355.3769 3.2384 1.0919 340.0780 357.2748 15.4118 320.9140 60.0601 335.9539 9.2117 357.1794 326.1489 93.3262 356.3522 345.4100 26.4581 355.8165 342.3862 47.4028 45.1748 1.7566 338.8158 353.9261 31.7395 269.0993 353.5039 7.2757 355.3846 2.6628 2.5369 358.5226 6.4565 5.0230 356.8699 352.3396 13.2515 357.3250 5.2079 11.2216 6.3561 7.3521 9.6263 350.0084 341.7487 310.4960 
-18.7992 96.8013 173.5830 357.7520 356.8752 177.3650 357.5278 348.1438 359.5365 2.5341 10.9253 359.5538 358.7011 357.7399 0.9016 355.3479 3.1373 1.0520 339.9546 357.2699 15.3631 320.7464 60.1490 336.2471 9.0866 357.2296 326.1334 93.4565 356.3672 345.4475 26.3782 355.8125 342.2869 47.4553 45.2425 1.6353 338.7741 353.9407 31.7015 269.1187 353.5263 7.2438 355.3646 2.6846 2.4472 358.4967 6.3988 5.1052 357.0872 352.3717 13.2590 357.2996 5.1988 11.1979 6.3556 7.3560 9.6169 350.0472 341.6937 310.5197 
-18.8245 96.7984 173.5610 357.7453 356.8524 177.3586 357.5589 348.1295 359.5228 2.4661 10.9629 359.5395 358.7911 357.6921 0.8639 355.3327 3.1410 1.0139 339.9932 357.2804 15.3252 320.9279 60.2015 336.0551 9.1355 357.1968 326.1719 93.2231 356.1336 345.1832 26.3997 355.8056 342.2249 47.4647 45.2192 1.6731 338.8203 353.9362 31.7133 268.9857 353.5598 7.2598 355.3535 2.6841 2.3648 358.4673 6.3869 5.1358 357.0730 352.3523 13.3049 357.2708 5.1868 11.1963 6.3670 7.3528 9.5859 350.0518 341.6931 310.5498 
-18.8494 96.7902 173.5235 357.7491 356.8510 177.3526 357.5942 348.1230 359.5187 2.4265 10.9996 359.5263 358.7098 357.6888 0.8637 355.4460 3.1260 1.0143 340.0171 357.2580 15.3445 320.9218 60.2023 336.0458 9.1841 357.1980 326.2108 93.0898 356.0781 344.9437 26.3764 355.8131 342.2312 47.4921 45.2909 1.7164 338.7721 353.9395 31.6569 269.0574 353.5216 7.2827 355.3499 2.7513 2.2816 358.4331 6.3038 5.2284 356.9428 352.3598 13.3062 357.2518 5.2206 11.1856 6.3664 7.3338 9.6034 350.0890 341.6518 310.5511 
-18.8763 96.7861 173.4897 357.7464 356.8503 177.3403 357.5857 348.1124 359.5086 2.4310 11.0542 359.5455 358.7272 357.6617 0.8617 355.4279 3.1270 1.0118 340.0271 357.2897 15.3531 320.9326 60.1599 336.0011 9.0981 357.2142 326.1750 93.1635 356.1441 344.9610 26.4863 355.8290 342.4239 47.3781 45.0091 1.5458 338.9739 353.9979 31.8151 268.9763 353.5382 7.3208 355.3349 2.8018 2.2304 358.4066 6.2428 5.2923 356.9932 352.3768 13.3108 357.2267 5.2467 11.1694 6.3780 7.3061 9.5837 350.1030 341.6379 310.5557 
-18.9093 96.7849 173.4562 357.7374 356.8297 177.3492 357.6002 348.0894 359.5025 2.4055 11.0880 359.5276 358.6663 357.6818 0.8467 355.5020 3.0883 0.9956 340.0400 357.2727 15.3588 320.9536 60.1874 335.9580 9.2018 357.1981 326.1861 93.0423 356.1396 344.9935 26.4500 355.8197 342.4016 47.3995 45.1051 1.6371 338.8903 353.9134 31.7375 269.0090 353.5172 7.3374 355.3105 2.8230 2.1269 358.3839 6.2043 5.3158 357.1974 352.3816 13.3458 357.1902 5.2566 11.1437 6.3722 7.3079 9.6273 350.1123 341.6201 310.5673 
-18.9335 96.7782 173.4258 357.7424 356.7998 177.3461 357.6294 348.0498 359.4853 2.3688 11.1526 359.5139 358.6527 357.6235 0.8611 355.5417 3.1141 1.0122 340.0477 357.2954 15.3558 320.9506 60.0817 335.9629 9.1033 357.2228 326.1508 93.0522 356.1750 344.9528 26.4744 355.8414 342.4221 47.3665 45.0732 1.6674 338.9493 353.9498 31.7725 268.8930 353.5049 7.2866 355.3191 2.8275 2.0060 358.3313 6.1762 5.4322 357.0569 352.3531 13.3754 357.1807 5.2524 11.1499 6.3815 7.2809 9.5855 350.1170 341.5976 310.5614 
-18.9655 96.7775 173.3943 357.7346 356.7710 177.3418 357.6505 348.0080 359.4854 2.3349 11.2194 359.5072 358.6068 357.5835 0.8726 355.6027 3.1093 1.0212 340.0536 357.2615 15.4088 321.0862 60.0917 335.7856 9.1758 357.2155 326.1933 92.8921 356.1748 345.0145 26.4526 355.8067 342.4400 47.3937 45.1485 1.7092 338.8268 353.9209 31.7164 269.0032 353.4962 7.2411 355.2958 2.8388 1.8953 358.3083 6.1359 5.5316 357.1908 352.3710 13.3718 357.1483 5.2457 11.1522 6.3857 7.2714 9.5517 350.1527 341.5682 310.5939 
-18.9971 96.7754 173.3641 357.7250 356.7385 177.3449 357.6678 347.9707 359.4703 2.3004 11.2755 359.4881 358.6472 357.5287 0.8875 355.5584 3.1357 1.0382 340.0569 357.2979 15.4151 321.1111 60.0141 335.7694 9.0644 357.2488 326.1495 92.8981 356.1905 344.9869 26.4561 355.8416 342.4546 47.4091 45.1675 1.7200 338.8761 353.9184 31.7226 268.9420 353.5001 7.2500 355.2765 2.8358 1.7066 358.2631 6.1108 5.7148 357.0736 352.3516 13.3951 357.1176 5.2366 11.1215 6.3737 7.2827 9.6210 350.1831 341.5097 310.5740 
-19.0303 96.7727 173.3361 357.7197 356.7074 177.3374 357.4966 348.1365 359.5627 2.5781 10.9664 359.5989 358.6104 357.6998 0.8449 355.4907 3.0980 0.9959 339.9103 357.2987 15.3460 320.9389 60.0994 336.0401 9.0660 357.2239 326.1295 92.7356 356.2053 344.9102 26.3072 355.8423 342.3272 47.5090 45.2578 1.6599 338.7335 353.8773 31.6549 268.9775 353.4818 7.2000 355.2537 2.8156 1.4714 358.2284 6.1272 5.8499 357.1148 352.3209 13.4887 357.0906 5.2263 11.1284 6.3828 7.2600 9.5600 350.1920 341.5018 310.5963 
-19.0653 96.7689 173.2870 357.7291 356.7178 177.3332 357.5367 348.1318 359.5621 2.5176 11.0333 359.5975 358.8042 357.5740 0.7999 355.3410 3.2282 0.9533 339.9706 357.2861 15.2782 320.9272 60.1085 335.9852 9.1799 357.1889 326.1523 92.6053 356.2062 344.8659 26.3068 355.8009 342.2384 47.5803 45.2161 1.6636 338.6993 353.9083 31.6497 269.0570 353.4685 7.1915 355.2502 2.8618 1.2101 358.1672 6.1239 6.0154 357.2700 352.2663 13.5892 357.0720 5.2753 11.1494 6.3874 7.2390 9.5350 350.2032 341.4765 310.6025 
-19.1069 96.7658 173.2539 357.7101 356.6703 177.3351 357.5465 348.0752 359.5684 2.4914 11.1066 359.5997 358.7869 357.5177 0.8062 355.3709 3.2306 0.9630 339.9607 357.3040 15.2820 320.9727 60.0293 335.9456 9.0945 357.2222 326.1363 92.5321 356.2026 344.7741 26.4461 355.7982 342.4176 47.4027 44.9039 1.5111 338.9747 353.9938 31.8314 268.9135 353.4799 7.2718 355.2067 2.8074 0.9316 358.1376 6.1712 6.1938 357.2704 352.1939 13.6619 357.0225 5.2534 11.1885 6.3850 7.2480 9.5582 350.2302 341.4119 310.5740 
-19.1453 96.7567 173.2062 357.7092 356.6596 177.3617 357.5881 348.0554 359.5630 2.4365 11.1786 359.5759 358.7541 357.4292 0.8094 355.4188 3.2811 0.9672 339.9675 357.2853 15.2682 320.9149 59.9395 336.0085 9.1415 357.2245 326.1103 92.4482 356.1625 344.7185 26.4395 355.8362 342.3806 47.4105 44.9553 1.6105 338.9265 353.9409 31.7882 268.9686 353.4148 7.3105 355.1926 2.7904 0.6700 358.0853 6.2458 6.2702 357.2346 352.1239 13.8140 356.9906 5.3038 11.1981 6.4058 7.1804 9.4778 350.2474 341.4019 310.5892 
-19.1963 96.7491 173.1922 357.6861 356.5677 177.3930 357.6481 348.0065 359.5391 2.3293 11.1844 359.5479 358.7319 357.4332 0.8403 355.5054 3.2219 0.9929 339.9935 357.2924 15.3320 321.0880 59.9764 335.8112 9.1352 357.1949 326.0374 93.5262 356.3440 345.3820 26.4496 355.7971 342.3926 47.4356 45.0407 1.6295 338.8125 353.9109 31.7525 269.0565 353.4221 7.1701 355.1462 2.6215 0.4180 358.0466 6.3977 6.4045 357.3100 352.0169 13.8859 356.9260 5.2140 11.1755 6.4405 7.1979 9.4629 350.2411 341.3862 310.5816 
